<?xml version="1.0" encoding="UTF-8" standalone="no"?>
<!-- Generator: Adobe Illustrator 23.0.1, SVG Export Plug-In . SVG Version: 6.00 Build 0)  -->

<svg
   xmlns:dc="http://purl.org/dc/elements/1.1/"
   xmlns:cc="http://creativecommons.org/ns#"
   xmlns:rdf="http://www.w3.org/1999/02/22-rdf-syntax-ns#"
   xmlns:svg="http://www.w3.org/2000/svg"
   xmlns="http://www.w3.org/2000/svg"
   xmlns:sodipodi="http://sodipodi.sourceforge.net/DTD/sodipodi-0.dtd"
   xmlns:inkscape="http://www.inkscape.org/namespaces/inkscape"
   version="1.1"
   x="0px"
   y="0px"
   viewBox="0 0 410.91 387.21921"
   xml:space="preserve"
   id="svg490"
   sodipodi:docname="logo-donk-esport.svg"
   inkscape:version="0.92.4 (5da689c313, 2019-01-14)"
   width="410.91"
   height="387.21921"><metadata
   id="metadata496"><rdf:RDF><cc:Work
       rdf:about=""><dc:format>image/svg+xml</dc:format><dc:type
         rdf:resource="http://purl.org/dc/dcmitype/StillImage" /><dc:title /></cc:Work></rdf:RDF></metadata><defs
   id="defs494" /><sodipodi:namedview
   pagecolor="#ffffff"
   bordercolor="#666666"
   borderopacity="1"
   objecttolerance="10"
   gridtolerance="10"
   guidetolerance="10"
   inkscape:pageopacity="0"
   inkscape:pageshadow="2"
   inkscape:window-width="2560"
   inkscape:window-height="1377"
   id="namedview492"
   showgrid="false"
   inkscape:zoom="0.85"
   inkscape:cx="174.97597"
   inkscape:cy="125.55919"
   inkscape:window-x="2552"
   inkscape:window-y="-8"
   inkscape:window-maximized="1"
   inkscape:current-layer="svg490" />
<style
   type="text/css"
   id="style254">
	.st0{fill:#FFFFFF;}
	.st1{fill:#519531;}
	.st2{fill:#B4D027;}
	.st3{fill:#80B338;}
	.st4{fill:#FEFEFE;}
	.st5{fill:#D0D348;}
	.st6{fill:#007E37;}
	.st7{fill:#050404;}
	.st8{fill:#E4E4E3;}
	.st9{fill:#060605;}
	.st10{fill:#9FBC8F;}
	.st11{fill:#FFFFFF;stroke:#FFFFFF;stroke-miterlimit:10;}
</style>
<g
   inkscape:groupmode="layer"
   id="layer1"
   inkscape:label="Layer 1"
   transform="translate(-309.7,-238.34)" /><g
   id="Calque_4"
   transform="translate(-309.7,-238.34)">
</g>
<g
   id="Calque_5"
   transform="translate(-309.7,-238.34)">
</g>
<g
   id="Calque_3"
   transform="translate(-309.7,-238.34)">
</g>
<g
   id="Calque_2"
   transform="translate(-309.7,-238.34)">
	<g
   id="g265">
		<g
   id="g263">
			
			<path
   d="m 454.4,451.17 c -0.96,-11.54 -4.28,-22.34 -11.67,-31.54 -10.68,-13.29 -24.67,-19.85 -41.4,-18.34 -15.43,1.4 -26.85,9.18 -32.71,24 -7.14,18.05 3.18,38.49 21.16,41.82 11.85,2.2 23.33,-6.25 22.11,-16.83 -0.35,-2.99 -2.74,-6.43 -5.2,-8.39 -2.2,-1.76 -5.51,-1.74 -6.91,2.37 -0.61,1.8 -2.72,4.33 -4.12,4.27 -2.25,-0.09 -5.09,-1.52 -6.59,-3.3 -5.02,-5.95 -1.75,-16.33 6.16,-20.68 10.22,-5.63 24.42,-1.68 31.53,8.34 14.09,19.86 3.51,45.39 -18.32,53.32 -23.71,8.61 -50.74,-4.81 -59.79,-29.48 -8.47,-23.09 -2.99,-45.96 17.04,-63.54 25.9,-22.74 71.52,-16.58 93.64,13.16 6.13,8.24 14.48,13.74 23.72,17.93 -9.54,8.97 -19.1,17.93 -28.65,26.89 z"
   id="path261"
   inkscape:connector-curvature="0" />
		</g>
	</g>
	<g
   id="g273">
		<g
   id="g271">
			
			<path
   d="m 552.93,438 c 9.05,6.33 18.96,10.43 30.11,10.51 16.11,0.11 29.25,-6.37 38.09,-19.84 8.15,-12.42 9.22,-25.73 1.81,-39.18 -9.02,-16.38 -30.16,-21.12 -43.3,-9.68 -8.66,7.54 -9.28,21.31 -0.78,26.85 2.4,1.57 6.35,1.87 9.25,1.23 2.6,-0.58 4.55,-3.07 2.37,-6.63 -0.96,-1.56 -1.56,-4.69 -0.69,-5.7 1.4,-1.63 4.14,-2.89 6.34,-2.93 7.36,-0.13 13.04,8.66 11.53,17.24 -1.94,11.1 -13.29,19.33 -24.88,18.54 -22.97,-1.56 -35.43,-25.09 -28.28,-46.3 7.77,-23.03 33.7,-35.09 57.2,-26.81 22,7.75 35.54,25.83 36.55,51.58 1.3,33.3 -30.35,63.74 -65.35,62.16 -9.69,-0.44 -18.71,2.47 -27.27,6.83 -0.89,-12.6 -1.79,-25.24 -2.7,-37.87 z"
   id="path269"
   inkscape:connector-curvature="0" />
		</g>
	</g>
	<g
   id="g281">
		<g
   id="g279">
			
			<path
   d="m 528.78,521.04 c -11.03,0.65 -21.34,3.58 -30.14,10.43 -12.71,9.9 -18.99,23.14 -17.57,39.18 1.31,14.8 8.73,25.9 22.88,31.85 17.23,7.25 36.76,-2.15 39.97,-19.27 2.11,-11.29 -5.94,-22.47 -16.05,-21.54 -2.86,0.26 -6.14,2.47 -8.02,4.78 -1.68,2.07 -1.66,5.23 2.25,6.67 1.72,0.63 4.13,2.71 4.08,4.04 -0.09,2.15 -1.46,4.83 -3.16,6.23 -5.69,4.66 -15.6,1.29 -19.74,-6.37 -5.36,-9.91 -1.57,-23.4 8.01,-29.98 18.98,-13.02 43.35,-2.3 50.9,18.77 8.19,22.89 -4.67,48.43 -28.23,56.52 -22.06,7.57 -43.9,1.79 -60.66,-17.79 -21.68,-25.31 -15.74,-68.82 12.7,-89.29 7.87,-5.67 13.14,-13.54 17.15,-22.28 8.53,9.35 17.08,18.7 25.63,28.05 z"
   id="path277"
   inkscape:connector-curvature="0" />
		</g>
	</g>
	<path
   class="st1"
   d="m 590.03,431.72 -1.2,-1.2 -1.36,-0.32 c -0.62,-0.45 -2.21,-2.05 -3.52,-3.98 L 573,407.53 l -9.73,-17 -0.23,-13.91 -14.04,-24.22 -22.46,-10.12 -54.64,-98.3 -14.02,14.31 -3.15,17.1 -20.43,-37.05 -14.96,13.08 -10.82,57.64 48.38,49.25 -29.84,26.81 -15.45,40.74 19.82,49.81 8.33,5.3 -0.02,-0.05 48.44,-4.24 1.19,-7.31 11.81,-19.72 24.98,8.48 19.92,19.91 9.19,1.14 c 0.34,0.04 0.67,0.06 0.99,0.06 2.63,0 4.98,-1.26 6.63,-3.5 l 13.03,-1.46 c 2.88,-0.32 7.56,-2.38 14.9,-16.39 l 1.1,-2.1 -1.23,-4.4 c 6.1,-12.37 0.06,-18.94 -0.66,-19.67 z"
   id="path283"
   inkscape:connector-curvature="0"
   style="fill:#519531" />
	<path
   class="st2"
   d="m 496.4,440.93 -15.78,26.35 -1.62,9.95 -45.73,-5.58 -18.24,-45.84 14.11,-37.2 33.42,-30.03 -50.59,-51.5 9.86,-52.52 7.79,-6.81 53.91,97.76 4.9,-1.98 -14.37,-11.78 -19.88,-36.71 6.25,-33.87 7.11,-7.26 51.7,93.01 22.52,10.14 12.29,21.2 0.23,13.89 10.5,18.34 11.08,18.9 c 0,0 3.89,5.84 6.93,6.56 0,0 4.46,4.44 -1.54,14.7 l 1.24,4.44 c 0,0 -6.7,12.81 -10.25,13.21 l -16.29,1.83 c 0,0 -0.74,3.36 -2.95,3.08 l -7.14,-0.89 -19.45,-19.44 -27.55,-9.35 z"
   id="path285"
   inkscape:connector-curvature="0"
   style="fill:#b4d027" />
	<path
   d="m 587.91,433.85 -0.6,-0.6 -0.83,-0.2 c -0.96,-0.23 -3.41,-2.76 -5.08,-5.23 l -11.01,-18.8 -10.12,-17.67 -0.23,-13.9 -13.16,-22.71 -22.49,-10.13 -53.17,-95.65 -10.56,10.78 -4.51,24.45 -22.68,-41.14 -11.38,9.94 -10.34,55.08 49.48,50.38 -31.63,28.42 -14.78,38.97 19.03,47.82 10.77,6.86 40.47,-3.56 1.41,-8.63 13.43,-22.43 0.24,0.26 27.61,9.37 19.68,19.67 8.16,1.02 c 0.21,0.03 0.42,0.04 0.63,0.04 2.24,0 3.9,-1.47 4.86,-3.32 l 14.47,-1.63 c 4.24,-0.48 9.18,-8.31 12.57,-14.8 l 0.55,-1.05 -1.22,-4.39 c 5.99,-11.17 1.03,-16.62 0.43,-17.22 z"
   id="path287"
   inkscape:connector-curvature="0" />
	<polygon
   class="st2"
   points="544.77,357.07 503.7,338.57 486.54,345.52 432.63,247.75 424.84,254.56 414.98,307.08 465.57,358.58 432.15,388.61 418.04,425.81 436.28,471.65 449.49,480.07 482,477.23 482,477.23 483.63,467.28 499.89,441.44 501.85,443.55 518.61,430.16 524.14,419.66 551.72,407.32 567.9,410.49 556.76,391.26 557.05,378.27 "
   id="polygon289"
   style="fill:#b4d027" />
	<polygon
   class="st3"
   points="457.61,293.01 463.44,261.17 470.55,253.92 522.25,346.93 502.37,340.97 491.44,343.53 490.96,342.8 479.93,333.9 "
   id="polygon291"
   style="fill:#80b338" />
	<polygon
   class="st4"
   points="508.71,381.27 508.25,382.28 509.03,390.29 530.59,394.13 530.59,393.65 520.73,378.54 519.44,378.1 510.88,379.64 "
   id="polygon293"
   style="fill:#fefefe" />
	<polygon
   class="st3"
   points="518.81,373.69 504.33,379.98 519.44,378.1 532.92,396.78 526.06,375.66 "
   id="polygon295"
   style="fill:#80b338" />
	<polygon
   class="st3"
   points="479.58,434.23 488.4,440.93 490.1,442.84 490.85,443.55 495.15,440.23 492.23,435.81 483.27,432.88 470.62,416.8 473.8,396.9 468.99,417.23 "
   id="polygon297"
   style="fill:#80b338" />
	<polygon
   class="st3"
   points="453.38,462.28 452.97,473.23 455.55,463 456.11,460.61 471.18,434.71 470.06,428.55 454.69,459.2 "
   id="polygon299"
   style="fill:#80b338" />
	<polygon
   class="st3"
   points="525.36,368.45 529.21,378.75 528.38,394.26 531.83,401.27 535.37,409.54 540.72,407.32 533.9,391.64 531.49,378.27 525.59,365.82 515.83,363.99 523.46,366.78 "
   id="polygon301"
   style="fill:#80b338" />
	<path
   class="st5"
   d="m 501.85,443.55 16.05,-12.82 5.14,-11.78 28.68,-11.64 16.07,3.19 11.08,18.9 c 0,0 3.65,5.32 6.93,6.56 3.28,1.24 0,0 0,0 0,0 2.09,2.08 1.22,4.48 -0.88,2.4 0,0 0,0 0,0 0.5,3.2 -0.46,5.1 -0.95,1.9 0,0 0,0 l -2.3,5.12 c 0,0 -0.7,0.23 1.24,4.44 1.94,4.21 0,0 0,0 0,0 0.46,1.7 -3.86,5.96 0,0 -4.35,6.79 -6.39,7.25 -2.04,0.46 0,0 0,0 l -16.29,1.83 c 0,0 -0.39,2.05 -2.95,3.08 -2.56,1.03 0,0 0,0 l -7.14,-0.89 -19.45,-19.44 z"
   id="path303"
   inkscape:connector-curvature="0"
   style="fill:#d0d348" />
	<polygon
   class="st6"
   points="533.74,423.33 551.21,423.33 554.99,429.44 551.67,426.09 551.24,424.85 535.35,424.82 522.56,436.19 531.69,423.64 "
   id="polygon305"
   style="fill:#007e37" />
	<path
   class="st6"
   d="m 557.28,466.97 -1,-22.93 -6.3,-8.79 -3.79,-1.28 -2.17,0.27 -3.79,-1.85 -8.19,7.77 c 0,0 -1.27,2.49 0.23,3.65 1.5,1.17 0,0 0,0 0,0 0.76,2.1 3.95,-0.25 3.19,-2.35 0,0 0,0 l 6.01,-5.8 c 0,0 5.25,-0.18 6.6,0.8 1.34,0.98 0,0 0,0 l 4.94,6.62 0.74,10.09 z"
   id="path307"
   inkscape:connector-curvature="0"
   style="fill:#007e37" />
	<polygon
   class="st1"
   points="517.87,486.18 530.53,472.74 554.02,471.09 566.23,482.8 565.89,502.68 567.18,503.89 565.84,505.26 565.49,525.13 552.83,538.53 529.36,540.17 517.13,528.51 "
   id="polygon309"
   style="fill:#519531" />
	<polygon
   class="st6"
   points="568.79,460.06 571.47,460.78 571.47,459.91 574.28,457.25 572.69,449.23 570.61,447.45 572.1,443.38 566.59,451.01 "
   id="polygon311"
   style="fill:#007e37" />
	<polygon
   class="st7"
   points="569.06,449.39 569.98,450.05 571.47,456.6 570.15,458.45 568.16,451.52 "
   id="polygon313"
   style="fill:#050404" />
	<path
   class="st4"
   d="m 535.22,444.33 c 0,0 -1.6,2.17 10.95,5.17 12.55,3 0,0 0,0 l 11.27,20.11 -2.33,-12.53 -1.33,-11.89 -4.94,-6.62 -1.78,-1.16 -4.81,0.36 z"
   id="path315"
   inkscape:connector-curvature="0"
   style="fill:#fefefe" />
	<path
   class="st8"
   d="m 538.5,441.38 4.07,1.58 1.37,-0.54 1.42,-1.52 -0.9,2.41 1.55,0.86 2.35,-0.84 1.3,-1.5 -1.75,3.43 0.7,0.99 0.75,0.6 1.63,-0.33 -0.84,1.26 -0.76,0.61 0.28,0.49 0.32,0.8 1.54,-0.03 -1.03,1.1 0.11,1.48 6.82,17.38 -11.27,-20.11 c 0,0 -9.63,-1.7 -10.95,-5.17 -1.32,-3.47 0,0 0,0 z"
   id="path317"
   inkscape:connector-curvature="0"
   style="fill:#e4e4e3" />
	<polygon
   class="st9"
   points="526.77,388.29 524.17,384.72 522.44,391.25 "
   id="polygon319"
   style="fill:#060605" />
	<polygon
   class="st3"
   points="466.48,350.97 475.66,335.91 453.54,298.03 433.78,256.85 432.37,255.21 429.07,256.85 422.01,303.91 "
   id="polygon321"
   style="fill:#80b338" />
	<path
   class="st10"
   d="M 481.24,481.45"
   id="path323"
   inkscape:connector-curvature="0"
   style="fill:#9fbc8f" />
	<polygon
   class="st1"
   points="526.12,456.81 541.54,472.1 535.63,475.89 485.09,476.96 499.66,448.57 "
   id="polygon325"
   style="fill:#519531" />
	<polygon
   class="st1"
   points="346.81,485.58 359.02,497.29 358.28,539.62 345.62,553.02 309.7,555.53 310.88,488.1 "
   id="polygon327"
   style="fill:#519531" />
	<polygon
   class="st1"
   points="349.92,497.92 362.57,484.48 386.06,482.84 398.28,494.54 397.54,536.88 384.87,550.27 361.41,551.91 349.18,540.26 "
   id="polygon329"
   style="fill:#519531" />
	<polygon
   class="st1"
   points="439.72,479.09 438.54,546.52 388.22,550.04 389.39,482.61 "
   id="polygon331"
   style="fill:#519531" />
	<polygon
   class="st1"
   points="486.65,475.81 466.85,510.88 485.48,543.23 429.44,547.15 430.62,479.72 "
   id="polygon333"
   style="fill:#519531" />
	<polygon
   class="st1"
   points="527.19,472.97 526.71,500.49 523.59,500.71 523.38,513.1 526.5,512.88 526.02,540.4 483.13,543.4 484.3,475.97 "
   id="polygon335"
   style="fill:#519531" />
	<polygon
   class="st1"
   points="593.27,468.35 605.49,480.05 605.08,503.61 592.41,517.01 583.85,517.61 583.53,536.38 556.17,538.29 557.35,470.86 "
   id="polygon337"
   style="fill:#519531" />
	<path
   d="m 531.08,536.04 -9.93,-9.47 0.29,-16.69 3.19,-0.22 -3.13,-3.05 0.33,-19.05 10.28,-10.92 20.17,-1.41 9.93,9.51 -0.29,16.65 -3.31,0.23 2.84,2.64 -0.03,0.03 0.44,0.4 -0.33,19.05 -10.29,10.88 z m 11.28,-20.26 0.01,-0.48 -1.67,0.12 -0.01,0.48 z m 0.34,-19.94 0.01,-0.48 -1.67,0.12 -0.01,0.48 z"
   id="path339"
   inkscape:connector-curvature="0" />
	<path
   class="st11"
   d="m 550.13,480.39 7.06,6.77 -0.17,9.56 -9.36,0.65 0.13,-7.37 -11.64,0.81 -0.18,10.51 13.64,-0.95 4.76,4.43 -0.04,0.04 2.52,2.33 -0.26,14.86 -7.32,7.74 -16.03,1.12 -7.06,-6.73 0.17,-9.6 9.4,-0.66 -0.13,7.37 11.64,-0.81 0.18,-10.51 -14.03,0.98 -6.89,-6.71 0.26,-14.93 7.32,-7.77 z"
   id="path341"
   inkscape:connector-curvature="0"
   style="fill:#ffffff;stroke:#ffffff;stroke-miterlimit:10" />
	<polygon
   class="st1"
   points="596.39,480.69 609.04,467.25 632.53,465.6 644.75,477.31 644.01,519.64 631.34,533.04 607.88,534.68 595.65,523.02 "
   id="polygon343"
   style="fill:#519531" />
	<polygon
   class="st1"
   points="671.79,462.86 684.01,474.56 683.05,529.42 634.69,532.8 635.86,465.37 "
   id="polygon345"
   style="fill:#519531" />
	<polygon
   class="st1"
   points="674.64,490.15 675.12,462.63 720.61,459.45 720.13,486.97 711.04,487.6 710.35,527.51 682.99,529.42 683.69,489.52 "
   id="polygon347"
   style="fill:#519531" />
	<path
   d="m 313.76,551.23 1.04,-59.4 30.28,-2.12 9.93,9.51 -0.68,39.01 -10.29,10.88 z m 21.38,-20.96 0.36,-20.41 -1.67,0.12 -0.36,20.41 z"
   id="path349"
   inkscape:connector-curvature="0" />
	<path
   class="st11"
   d="m 342.92,494.88 7.06,6.77 -0.61,34.86 -7.32,7.74 -23.22,1.62 0.86,-49.36 z m -2.34,9.61 -11.64,0.81 -0.53,30.45 11.64,-0.81 z"
   id="path351"
   inkscape:connector-curvature="0"
   style="fill:#ffffff;stroke:#ffffff;stroke-miterlimit:10" />
	<path
   d="m 363.13,547.78 -9.93,-9.47 0.68,-39.01 10.28,-10.92 20.17,-1.41 9.93,9.51 -0.68,39.01 -10.29,10.88 z m 11.27,-20.26 0.36,-20.41 -1.67,0.12 -0.36,20.41 z"
   id="path353"
   inkscape:connector-curvature="0" />
	<path
   class="st11"
   d="m 382.17,492.13 7.06,6.77 -0.61,34.86 -7.32,7.74 -16.03,1.12 -7.06,-6.73 0.61,-34.86 7.32,-7.77 z m -2.34,9.61 -11.64,0.81 -0.53,30.45 11.64,-0.81 z"
   id="path355"
   inkscape:connector-curvature="0"
   style="fill:#ffffff;stroke:#ffffff;stroke-miterlimit:10" />
	<polygon
   points="411.65,544.39 392.28,545.74 393.31,486.34 412.1,485.03 416.12,494.22 416.29,484.74 435.66,483.38 434.62,542.78 415.84,544.09 411.82,534.91 "
   id="polygon357" />
	<path
   class="st11"
   d="m 421.19,489.41 9.4,-0.66 -0.86,49.36 -10.56,0.74 -11.92,-27.25 -0.49,28.12 -9.4,0.66 0.86,-49.36 10.56,-0.74 11.92,27.25 z"
   id="path359"
   inkscape:connector-curvature="0"
   style="fill:#ffffff;stroke:#ffffff;stroke-miterlimit:10" />
	<polygon
   points="452.87,541.51 433.5,542.86 434.54,483.46 453.91,482.1 453.79,488.78 457.71,481.84 479.69,480.3 462.26,511.2 478.66,539.7 456.67,541.24 452.99,534.83 "
   id="polygon361" />
	<path
   class="st11"
   d="m 471,485.92 -14.49,25.68 13.63,23.68 -10.49,0.73 -11.32,-19.68 -0.36,20.5 -9.4,0.66 0.86,-49.36 9.4,-0.66 -0.36,20.54 12.04,-21.35 z"
   id="path363"
   inkscape:connector-curvature="0"
   style="fill:#ffffff;stroke:#ffffff;stroke-miterlimit:10" />
	<polygon
   points="523.13,477.26 522.79,496.76 507.26,497.84 507.25,498.32 519.66,497.45 519.32,516.91 506.91,517.78 506.9,518.26 522.44,517.17 522.1,536.66 487.19,539.11 488.22,479.71 "
   id="polygon365" />
	<path
   class="st11"
   d="m 518.06,482.63 -0.17,9.46 -15.54,1.09 -0.18,10.51 12.42,-0.87 -0.16,9.42 -12.42,0.87 -0.18,10.51 15.54,-1.09 -0.17,9.47 -24.94,1.74 0.86,-49.36 z"
   id="path367"
   inkscape:connector-curvature="0"
   style="fill:#ffffff;stroke:#ffffff;stroke-miterlimit:10" />
	<path
   d="m 560.23,534 1.04,-59.4 30.28,-2.12 9.93,9.51 -0.35,20.24 -10.29,10.88 -10.9,0.76 -0.33,18.77 z m 21.68,-39.7 0.03,-1.68 -1.63,0.11 -0.03,1.68 z"
   id="path369"
   inkscape:connector-curvature="0" />
	<path
   class="st11"
   d="m 589.39,477.64 7.06,6.77 -0.28,16.09 -7.32,7.74 -13.82,0.97 -0.33,18.77 -9.4,0.66 0.86,-49.36 z m -2.38,9.61 -11.61,0.81 -0.2,11.71 11.61,-0.81 z"
   id="path371"
   inkscape:connector-curvature="0"
   style="fill:#ffffff;stroke:#ffffff;stroke-miterlimit:10" />
	<path
   d="m 609.6,530.55 -9.93,-9.47 0.68,-39.01 10.28,-10.92 20.17,-1.41 9.93,9.51 -0.68,39.01 -10.29,10.88 z m 11.27,-20.26 0.36,-20.41 -1.67,0.12 -0.36,20.41 z"
   id="path373"
   inkscape:connector-curvature="0" />
	<path
   class="st11"
   d="m 628.64,474.9 7.06,6.77 -0.61,34.86 -7.32,7.74 -16.03,1.12 -7.06,-6.73 0.61,-34.86 7.32,-7.77 z m -2.34,9.61 -11.64,0.81 -0.53,30.45 11.64,-0.81 z"
   id="path375"
   inkscape:connector-curvature="0"
   style="fill:#ffffff;stroke:#ffffff;stroke-miterlimit:10" />
	<path
   d="m 659.79,527.04 0.33,-18.77 -1.67,0.12 -0.33,18.77 -19.37,1.35 1.04,-59.4 30.28,-2.12 9.93,9.51 -0.33,19.08 -0.45,0.48 0.44,0.4 -0.51,29.23 z m 0.67,-38.23 0.03,-1.68 -1.67,0.12 -0.03,1.68 z"
   id="path377"
   inkscape:connector-curvature="0" />
	<path
   class="st11"
   d="m 667.9,472.15 7.06,6.77 -0.26,14.93 -2.61,2.75 2.52,2.33 -0.39,22.09 -9.36,0.65 0.33,-18.77 -11.64,0.81 -0.33,18.77 -9.4,0.66 0.86,-49.36 z m -2.34,9.61 -11.64,0.81 -0.2,11.71 11.64,-0.81 z"
   id="path379"
   inkscape:connector-curvature="0"
   style="fill:#ffffff;stroke:#ffffff;stroke-miterlimit:10" />
	<polygon
   points="678.7,485.85 679.04,466.36 716.55,463.74 716.21,483.23 707.12,483.87 706.43,523.77 687.05,525.13 687.75,485.22 "
   id="polygon381" />
	<path
   class="st11"
   d="m 711.47,469.11 -0.17,9.46 -9.08,0.64 -0.7,39.91 -9.4,0.66 0.7,-39.91 -9.05,0.63 0.17,-9.46 z"
   id="path383"
   inkscape:connector-curvature="0"
   style="fill:#ffffff;stroke:#ffffff;stroke-miterlimit:10" />
	<polygon
   points="376.64,504.49 376.64,528.63 369.94,529.42 369.94,504.49 "
   id="polygon385" />
	<polygon
   points="337.11,532.8 337.11,507.11 331.82,508.18 331.82,533.01 "
   id="polygon387" />
	<polygon
   class="st1"
   points="355,495.66 346.81,485.58 362.57,484.48 "
   id="polygon389"
   style="fill:#519531" />
	<polygon
   class="st1"
   points="391.11,488.75 386.06,482.84 393.24,482.34 "
   id="polygon391"
   style="fill:#519531" />
	<polygon
   class="st1"
   points="367.13,551.48 340.58,553.37 353.2,541.31 "
   id="polygon393"
   style="fill:#519531" />
	<polygon
   class="st1"
   points="392.28,549.75 376.64,550.85 388.34,542.86 "
   id="polygon395"
   style="fill:#519531" />
	<polygon
   class="st1"
   points="483.15,542.23 484.27,478 465.46,510.59 "
   id="polygon397"
   style="fill:#519531" />
	<polygon
   class="st1"
   points="526.13,534 521.15,540.74 535.35,539.75 "
   id="polygon399"
   style="fill:#519531" />
	<polygon
   class="st1"
   points="557.19,531.88 550.17,538.71 559.24,538.08 "
   id="polygon401"
   style="fill:#519531" />
	<polygon
   class="st1"
   points="526.18,479.09 523.13,473.25 534.2,472.48 "
   id="polygon403"
   style="fill:#519531" />
	<polygon
   class="st1"
   points="558.76,477.26 552.16,471.22 562.21,470.52 "
   id="polygon405"
   style="fill:#519531" />
	<polygon
   class="st1"
   points="597.7,523.14 596.45,510.4 590.41,515.9 583.11,515.9 581.94,535.3 579.84,536.64 609.71,534.55 "
   id="polygon407"
   style="fill:#519531" />
	<polygon
   class="st1"
   points="601.65,477.26 589.7,468.6 613.61,466.93 "
   id="polygon409"
   style="fill:#519531" />
	<polygon
   class="st1"
   points="636.76,471.09 624.97,466.13 640.73,465.03 "
   id="polygon411"
   style="fill:#519531" />
	<polygon
   class="st1"
   points="637.72,532.59 628.42,533.24 635.45,527.17 "
   id="polygon413"
   style="fill:#519531" />
	<polygon
   class="st1"
   points="720.13,486.97 711.04,487.6 710.35,527.51 719.69,526.93 "
   id="polygon415"
   style="fill:#519531" />
	<polygon
   class="st1"
   points="676.52,468.06 667.1,463.19 678.7,462.38 "
   id="polygon417"
   style="fill:#519531" />
	<polygon
   points="661.35,506.47 663.12,526.83 653.71,527.51 656.99,505.76 "
   id="polygon419" />
	<polygon
   points="662.41,491.17 661.7,484.51 657.23,484.51 657.23,491.17 "
   id="polygon421" />
	<polygon
   points="689.7,483.88 689.7,524.94 676.98,525.83 677.7,483.41 "
   id="polygon423" />
	<polygon
   points="622.64,512.23 622.64,487.84 617.58,488.03 617.58,512.23 "
   id="polygon425" />
	<polygon
   points="640.52,481.06 626.3,470.05 645.57,468.7 "
   id="polygon427" />
	<polygon
   points="679.94,478.12 666.74,467.22 684.64,465.97 "
   id="polygon429" />
	<polygon
   points="601.47,519.76 601.47,501.53 597.82,503.14 590.76,511.06 578.99,512.23 577.94,532.76 611,530.45 "
   id="polygon431" />
	<polygon
   points="601.47,483.41 584.64,472.96 615.46,470.81 "
   id="polygon433" />
	<polygon
   points="640.73,528.37 627.36,529.3 640.07,517.14 "
   id="polygon435" />
	<polygon
   points="522.88,488.59 517.71,477.64 537.22,476.28 "
   id="polygon437" />
	<polygon
   points="563.94,479.09 562.21,485.64 549.22,475.44 569.81,474 "
   id="polygon439" />
	<polygon
   points="545.35,497.65 545.35,492.62 539.11,493.52 539.58,497.75 "
   id="polygon441" />
	<polygon
   points="517.63,514.23 505.16,515.6 505.16,520.82 523.13,520.12 523.39,512.23 527.19,511.58 525.46,507.29 522.52,502.35 522.29,494.41 506.05,495.36 505.82,500.14 517.63,499.78 "
   id="polygon443" />
	<polygon
   points="544.52,517.14 544.52,513.53 539.11,514 539.11,518.47 "
   id="polygon445" />
	<polygon
   points="562.99,500.04 556.81,501.53 561.35,505.63 "
   id="polygon447" />
	<polygon
   points="583.7,495.96 582.76,491.64 578.52,491.64 579.11,496.7 "
   id="polygon449" />
	<polygon
   points="532.77,535.92 516.18,537.08 522.41,524.82 "
   id="polygon451" />
	<polygon
   points="565.31,533.64 548.04,534.85 560.88,523.14 "
   id="polygon453" />
	<polygon
   points="355,500.64 339.97,490.07 369.94,487.98 "
   id="polygon455" />
	<polygon
   points="365.53,547.61 338.72,549.49 354.36,536.04 "
   id="polygon457" />
	<polygon
   points="395.35,545.53 381.07,546.53 393.24,533.01 "
   id="polygon459" />
	<polygon
   points="393.24,497.82 378.74,488.75 378.74,487.36 396.2,486.14 "
   id="polygon461" />
	<polygon
   points="418.46,488.75 417.23,497.82 409.11,485.24 423.42,484.24 "
   id="polygon463" />
	<polygon
   points="454.79,491.03 446.38,482.63 461.69,481.56 "
   id="polygon465" />
	<polygon
   points="419.68,543.83 409.11,544.57 410.52,530.38 "
   id="polygon467" />
	<polygon
   points="459.41,541.05 449.89,541.71 451.46,530.38 "
   id="polygon469" />
	<polygon
   points="706.43,523.77 704.99,482.47 716.21,483.23 715.83,523.19 "
   id="polygon471" />
	<polygon
   points="459.41,510.94 479.69,480.3 478.66,539.7 "
   id="polygon473" />
	<polygon
   class="st0"
   points="671.36,495.97 675.2,494.06 675.11,499.09 "
   id="polygon475"
   style="fill:#ffffff" />
	<path
   d="m 544.23,470.97 3.23,3.23 6.26,0.78 c 0,0 5.97,2.22 7.39,-3.05 v 0 l 17.12,-2.76 -19.28,-0.02 c 0,0 0.97,5.34 -3.96,2.96 l -6.14,-0.76 -2.55,-1.54 z"
   id="path477"
   inkscape:connector-curvature="0" />
	<path
   class="st1"
   d="m 542.92,473.9 3.15,3.15 8.38,1.04 c 0,0 4.31,1.45 8.43,-3.34 l 15.34,-2.1 -1.91,-3.34 -15.2,2.62 c 0,0 -0.36,4.32 -6.23,3.35 l -7.42,-1.08 z"
   id="path479"
   inkscape:connector-curvature="0"
   style="fill:#519531" />
	<path
   class="st5"
   d="m 548.85,471.34 6.14,0.76 c 0,0 4.84,2.35 3.96,-2.96 z"
   id="path481"
   inkscape:connector-curvature="0"
   style="fill:#d0d348" />
	<polygon
   class="st1"
   points="465.26,511.2 481.66,539.7 486.21,538.71 487.27,480.3 482.69,480.3 "
   id="polygon483"
   style="fill:#519531" />
	<polygon
   points="477.53,539.78 475.87,529.64 481.62,539.5 "
   id="polygon485" />
	<polygon
   points="478.45,480.39 478.35,487.98 482.94,480.07 "
   id="polygon487" />
</g>
</svg>